<svg width="100" height="22" viewBox="0 0 100 22" xmlns="http://www.w3.org/2000/svg"><title>Logo</title><g fill="#414B82" fill-rule="evenodd"><path d="M6.458 13.572c0-.294-.158-.556-.474-.788-.315-.232-.89-.44-1.723-.624-1.312-.27-2.302-.695-2.968-1.268-.667-.573-1-1.357-1-2.35 0-1.05.417-1.942 1.25-2.674.833-.73 1.96-1.097 3.386-1.097 1.5 0 2.694.356 3.583 1.066.89.71 1.314 1.626 1.272 2.752l-.02.066H6.343c0-.47-.113-.828-.34-1.07-.225-.243-.587-.365-1.087-.365-.368 0-.677.106-.927.32-.25.213-.376.485-.376.816 0 .316.145.584.433.805.288.22.87.42 1.745.596 1.375.287 2.394.715 3.057 1.285.663.57.994 1.377.994 2.422 0 1.074-.45 1.958-1.35 2.652-.9.695-2.087 1.044-3.566 1.044-1.536 0-2.75-.412-3.64-1.236-.894-.824-1.32-1.743-1.278-2.757l.02-.067h3.19c.013.567.174.974.483 1.224.31.25.748.375 1.32.375.47 0 .828-.098 1.07-.292.244-.195.365-.473.365-.833M17.474.978v4.014h1.905v2.58h-1.906v5.47c0 .427.08.734.244.922.164.187.383.282.662.282.222 0 .397-.008.526-.023.128-.015.293-.044.494-.088l.25 2.758c-.39.095-.74.163-1.052.203-.312.04-.68.062-1.104.062-1.16 0-2.038-.33-2.635-.982-.6-.655-.897-1.692-.897-3.11V7.57H12.38v-2.58h1.583V.978h3.51zm-3.51 0h3.51-3.51zM29.762 16.915c-.098-.19-.186-.405-.266-.64-.08-.236-.148-.48-.203-.728-.334.492-.736.883-1.21 1.175-.47.29-1.044.436-1.718.436-1.07 0-1.94-.33-2.61-.982-.67-.655-1.003-1.526-1.003-2.614 0-1.184.418-2.098 1.254-2.74.837-.645 2.11-.966 3.817-.966h1.282v-.85c0-.507-.113-.897-.338-1.17-.226-.27-.575-.407-1.046-.407-.403 0-.704.1-.9.302-.2.203-.297.517-.297.943l-3.407-.01-.022-.066c-.048-1.09.38-2 1.282-2.732.903-.73 2.097-1.097 3.584-1.097 1.388 0 2.516.37 3.38 1.104.864.735 1.297 1.787 1.297 3.154v4.5c0 .64.05 1.232.15 1.776.1.544.252 1.084.454 1.62l-3.478-.01zm-2.323-2.417c.346 0 .666-.073.957-.22.292-.147.528-.337.708-.573V11.84h-1.25c-.556 0-.96.144-1.213.43-.254.287-.38.652-.38 1.093 0 .338.11.612.328.82.218.212.502.315.85.315zM39.79 4.992l.125 1.577c.354-.575.8-1.018 1.338-1.33.538-.312 1.155-.47 1.85-.47.7 0 1.305.162 1.81.486.51.324.89.816 1.148 1.478.348-.625.794-1.11 1.34-1.45.545-.342 1.182-.513 1.91-.513 1.098 0 1.962.4 2.59 1.198.628.798.943 2.027.943 3.688v7.27H49.31v-7.27c0-.77-.112-1.3-.338-1.587-.225-.288-.564-.43-1.015-.43-.34 0-.64.063-.9.19-.26.13-.483.308-.663.536 0 .126.004.235.01.326.008.092.01.182.01.27v7.963h-3.52v-7.27c0-.77-.11-1.3-.333-1.586-.222-.288-.566-.43-1.03-.43-.32 0-.61.063-.87.19-.26.13-.48.308-.66.536v8.56h-3.522V4.99h3.312M66.712 11.212c0 1.794-.382 3.233-1.146 4.318-.764 1.085-1.84 1.628-3.23 1.628-.542 0-1.023-.112-1.443-.332-.42-.22-.786-.54-1.098-.96v5.046h-3.52V4.992h3.29l.126 1.312c.32-.492.694-.87 1.126-1.136.43-.264.93-.397 1.5-.397 1.396 0 2.477.57 3.245 1.71.768 1.14 1.152 2.64 1.152 4.5v.232zm-3.51-.23c0-1.008-.14-1.817-.417-2.428-.278-.61-.723-.915-1.334-.915-.396 0-.73.076-1.004.23-.275.155-.492.38-.65.673v4.985c.166.257.386.448.66.574.275.125.613.187 1.016.187.618 0 1.06-.27 1.33-.812.265-.54.4-1.295.4-2.266v-.23zM69.55.972h3.532v15.953h-3.53V.972zM83.267 16.915c-.098-.19-.186-.405-.266-.64-.078-.236-.146-.48-.202-.728-.334.492-.736.883-1.21 1.175-.47.29-1.044.436-1.717.436-1.068 0-1.94-.33-2.61-.982-.67-.655-1.003-1.526-1.003-2.614 0-1.184.418-2.098 1.254-2.74.838-.645 2.11-.966 3.82-.966h1.28v-.85c0-.507-.113-.897-.338-1.17-.225-.27-.575-.407-1.046-.407-.404 0-.704.1-.902.302-.198.203-.296.517-.296.943l-3.407-.01-.02-.066c-.048-1.09.378-2 1.28-2.732.904-.73 2.098-1.097 3.586-1.097 1.388 0 2.515.37 3.38 1.104.863.735 1.296 1.787 1.296 3.154v4.5c0 .64.05 1.232.15 1.776.102.544.252 1.084.455 1.62l-3.48-.01zm-2.323-2.417c.347 0 .667-.073.96-.22.29-.147.526-.337.707-.573V11.84h-1.25c-.556 0-.96.144-1.213.43-.254.287-.38.652-.38 1.093 0 .338.11.612.328.82.22.212.502.315.85.315zM94.097 11.664l.01.088h.064l1.864-6.76h3.75l-4.312 13.163c-.346.882-.795 1.61-1.343 2.184-.55.573-1.422.86-2.616.86-.306 0-.555-.02-.75-.06-.195-.042-.5-.116-.917-.226l.427-2.648.22.05c.048.01.11.016.187.016.557 0 .962-.087 1.22-.26.257-.175.447-.436.572-.783l.095-.26L88.68 4.99h3.74l1.677 6.672"/></g></svg>